<svg version="1.1" id="Layer_1" xmlns="http://www.w3.org/2000/svg" xmlns:xlink="http://www.w3.org/1999/xlink" x="0px" y="0px"
	 width="100%" viewBox="0 0 800 800" enable-background="new 0 0 800 800" xml:space="preserve">
<path fill="#000000" opacity="1.000000" stroke="none" 
	d="
M424.000000,801.000000 
	C282.666656,801.000000 141.833328,801.000000 1.000000,801.000000 
	C1.000000,534.333313 1.000000,267.666656 1.000000,1.000000 
	C267.666656,1.000000 534.333313,1.000000 801.000000,1.000000 
	C801.000000,267.666656 801.000000,534.333313 801.000000,801.000000 
	C675.500000,801.000000 550.000000,801.000000 424.000000,801.000000 
M622.038818,98.409798 
	C605.420288,91.587112 588.794678,84.781517 572.185120,77.937080 
	C554.500183,70.649529 536.841003,63.299175 519.151245,56.023514 
	C496.846954,46.849964 474.276154,38.270058 452.315796,28.338486 
	C441.956268,23.653374 427.736267,32.871956 430.016144,44.227222 
	C430.528809,46.780651 430.873932,49.483471 431.992889,51.777695 
	C435.349396,58.659462 439.215820,65.294395 442.507690,72.204567 
	C443.395660,74.068459 443.728333,76.894562 442.967255,78.715248 
	C440.701080,84.136368 434.012573,86.796707 428.434113,84.815102 
	C416.674988,80.637939 404.982635,76.273041 393.231384,72.073280 
	C391.753754,71.545204 390.018768,71.131554 388.518433,71.375282 
	C381.152649,72.571793 373.814331,73.948975 366.487518,75.371536 
	C345.313171,79.482712 324.165771,83.734329 302.976990,87.768921 
	C270.376892,93.976357 237.735123,99.965736 205.147720,106.238152 
	C197.144684,107.778572 189.384094,109.203911 182.611679,115.245224 
	C167.131104,129.054611 150.731293,141.832870 134.718384,155.046341 
	C117.301178,169.418594 99.845505,183.745102 82.522758,198.230469 
	C77.185715,202.693329 78.237305,213.339050 84.104683,217.165314 
	C86.468231,218.706650 88.831192,220.256531 91.268097,221.676041 
	C95.164108,223.945480 95.571228,227.302811 94.332474,231.154770 
	C93.773964,232.891479 93.027489,234.575333 92.269913,236.239288 
	C76.550652,270.765533 60.714973,305.239563 45.213436,339.863190 
	C43.216423,344.323669 40.336689,348.448517 41.316608,354.380219 
	C44.346832,372.722900 46.461620,391.218048 48.863113,409.662933 
	C51.157055,427.281769 53.349377,444.913849 55.614388,462.536469 
	C58.387043,484.108826 61.064426,505.694702 64.062027,527.235962 
	C64.850822,532.904297 65.589722,539.012146 68.230461,543.903870 
	C74.508301,555.532837 88.749161,555.107605 95.182358,543.577942 
	C98.661758,537.342163 101.874062,530.957520 105.212929,524.643188 
	C107.536781,520.248535 112.302879,517.582214 116.620338,518.248291 
	C120.366737,518.826294 125.031998,523.624573 125.683258,527.934631 
	C127.196899,537.951782 128.545441,547.993835 129.994293,558.020935 
	C130.702332,562.921204 131.385086,567.574341 134.998871,571.714233 
	C153.245499,592.617065 171.188843,613.784912 189.225021,634.871338 
	C212.662369,662.272278 236.059921,689.707336 259.561188,717.053345 
	C261.781311,719.636719 264.234253,722.686584 267.226501,723.839600 
	C309.618744,740.174133 352.125061,756.212524 394.597717,772.338623 
	C400.318665,774.510742 404.813751,772.960388 408.913910,768.603333 
	C412.677216,764.604431 413.542908,760.250244 413.338776,755.057129 
	C413.118866,749.463562 415.319366,746.851074 420.130737,746.299744 
	C427.718964,745.430298 435.332581,744.780151 442.937988,744.063660 
	C457.821014,742.661499 472.708313,741.303955 487.589142,739.878906 
	C503.953979,738.311707 520.323425,736.782166 536.669922,735.039612 
	C542.208069,734.449158 548.383057,734.552979 553.021240,732.040100 
	C559.934204,728.294800 565.750000,722.519897 572.019348,717.591553 
	C604.017151,692.437866 636.080994,667.367371 667.968689,642.074768 
	C679.646179,632.812378 690.924561,623.045166 702.339539,613.454163 
	C706.833069,609.678589 705.583740,604.630554 704.493591,600.070923 
	C703.379089,595.409668 700.095703,592.172302 695.047729,591.748657 
	C686.112610,590.998962 677.160889,590.386536 668.204163,589.978577 
	C662.604126,589.723572 660.618103,585.945251 658.957031,581.567993 
	C657.411377,577.494690 658.270142,574.011292 661.575562,571.234436 
	C668.569214,565.359009 675.877869,559.830627 682.573364,553.636719 
	C688.536133,548.120728 695.944641,544.126770 698.604065,535.180054 
	C703.673523,518.125366 709.690796,501.349060 715.447754,484.502655 
	C729.652039,442.936920 743.972839,401.410889 758.107361,359.821503 
	C759.312744,356.274811 760.495911,352.222870 759.963562,348.663788 
	C756.456909,325.218262 752.454468,301.847168 748.658081,278.444580 
	C745.420288,258.485992 742.344543,238.500244 738.937866,218.570831 
	C738.360474,215.193130 737.392456,210.552765 735.007935,209.078079 
	C729.269897,205.529327 723.123840,202.374466 715.741760,207.404282 
	C708.808105,212.128616 706.120605,210.943512 701.223450,204.167480 
	C678.382874,172.563538 655.597961,140.919174 632.644104,109.397728 
	C629.800598,105.492920 626.067932,102.235626 622.038818,98.409798 
z"/>
<path fill="#59298C" opacity="1.000000" stroke="none" 
	d="
M622.393066,98.544052 
	C626.067932,102.235626 629.800598,105.492920 632.644104,109.397728 
	C655.597961,140.919174 678.382874,172.563538 701.223450,204.167480 
	C706.120605,210.943512 708.808105,212.128616 715.741760,207.404282 
	C723.123840,202.374466 729.269897,205.529327 735.007935,209.078079 
	C737.392456,210.552765 738.360474,215.193130 738.937866,218.570831 
	C742.344543,238.500244 745.420288,258.485992 748.658081,278.444580 
	C752.454468,301.847168 756.456909,325.218262 759.963562,348.663788 
	C760.495911,352.222870 759.312744,356.274811 758.107361,359.821503 
	C743.972839,401.410889 729.652039,442.936920 715.447754,484.502655 
	C709.690796,501.349060 703.673523,518.125366 698.604065,535.180054 
	C695.944641,544.126770 688.536133,548.120728 682.573364,553.636719 
	C675.877869,559.830627 668.569214,565.359009 661.575562,571.234436 
	C658.270142,574.011292 657.411377,577.494690 658.957031,581.567993 
	C660.618103,585.945251 662.604126,589.723572 668.204163,589.978577 
	C677.160889,590.386536 686.112610,590.998962 695.047729,591.748657 
	C700.095703,592.172302 703.379089,595.409668 704.493591,600.070923 
	C705.583740,604.630554 706.833069,609.678589 702.339539,613.454163 
	C690.924561,623.045166 679.646179,632.812378 667.968689,642.074768 
	C636.080994,667.367371 604.017151,692.437866 572.019348,717.591553 
	C565.750000,722.519897 559.934204,728.294800 553.021240,732.040100 
	C548.383057,734.552979 542.208069,734.449158 536.669922,735.039612 
	C520.323425,736.782166 503.953979,738.311707 487.589142,739.878906 
	C472.708313,741.303955 457.821014,742.661499 442.937988,744.063660 
	C435.332581,744.780151 427.718964,745.430298 420.130737,746.299744 
	C415.319366,746.851074 413.118866,749.463562 413.338776,755.057129 
	C413.542908,760.250244 412.677216,764.604431 408.913910,768.603333 
	C404.813751,772.960388 400.318665,774.510742 394.597717,772.338623 
	C352.125061,756.212524 309.618744,740.174133 267.226501,723.839600 
	C264.234253,722.686584 261.781311,719.636719 259.561188,717.053345 
	C236.059921,689.707336 212.662369,662.272278 189.225021,634.871338 
	C171.188843,613.784912 153.245499,592.617065 134.998871,571.714233 
	C131.385086,567.574341 130.702332,562.921204 129.994293,558.020935 
	C128.545441,547.993835 127.196899,537.951782 125.683258,527.934631 
	C125.031998,523.624573 120.366737,518.826294 116.620338,518.248291 
	C112.302879,517.582214 107.536781,520.248535 105.212929,524.643188 
	C101.874062,530.957520 98.661758,537.342163 95.182358,543.577942 
	C88.749161,555.107605 74.508301,555.532837 68.230461,543.903870 
	C65.589722,539.012146 64.850822,532.904297 64.062027,527.235962 
	C61.064426,505.694702 58.387043,484.108826 55.614388,462.536469 
	C53.349377,444.913849 51.157055,427.281769 48.863113,409.662933 
	C46.461620,391.218048 44.346832,372.722900 41.316608,354.380219 
	C40.336689,348.448517 43.216423,344.323669 45.213436,339.863190 
	C60.714973,305.239563 76.550652,270.765533 92.269913,236.239288 
	C93.027489,234.575333 93.773964,232.891479 94.332474,231.154770 
	C95.571228,227.302811 95.164108,223.945480 91.268097,221.676041 
	C88.831192,220.256531 86.468231,218.706650 84.104683,217.165314 
	C78.237305,213.339050 77.185715,202.693329 82.522758,198.230469 
	C99.845505,183.745102 117.301178,169.418594 134.718384,155.046341 
	C150.731293,141.832870 167.131104,129.054611 182.611679,115.245224 
	C189.384094,109.203911 197.144684,107.778572 205.147720,106.238152 
	C237.735123,99.965736 270.376892,93.976357 302.976990,87.768921 
	C324.165771,83.734329 345.313171,79.482712 366.487518,75.371536 
	C373.814331,73.948975 381.152649,72.571793 388.518433,71.375282 
	C390.018768,71.131554 391.753754,71.545204 393.231384,72.073280 
	C404.982635,76.273041 416.674988,80.637939 428.434113,84.815102 
	C434.012573,86.796707 440.701080,84.136368 442.967255,78.715248 
	C443.728333,76.894562 443.395660,74.068459 442.507690,72.204567 
	C439.215820,65.294395 435.349396,58.659462 431.992889,51.777695 
	C430.873932,49.483471 430.528809,46.780651 430.016144,44.227222 
	C427.736267,32.871956 441.956268,23.653374 452.315796,28.338486 
	C474.276154,38.270058 496.846954,46.849964 519.151245,56.023514 
	C536.841003,63.299175 554.500183,70.649529 572.185120,77.937080 
	C588.794678,84.781517 605.420288,91.587112 622.393066,98.544052 
M450.969879,478.530121 
	C482.896088,510.470062 514.821472,542.410889 546.749268,574.349243 
	C553.171326,580.773499 555.252014,580.804382 561.524292,574.535278 
	C580.266052,555.803162 599.004272,537.067505 617.734985,518.324402 
	C623.667969,512.387573 623.673645,510.129150 617.819763,504.268311 
	C593.912109,480.332031 569.969849,456.430084 546.162476,432.394501 
	C544.591431,430.808441 543.252930,428.251709 543.144104,426.079468 
	C542.510254,413.430237 532.769165,403.854156 520.122559,404.035858 
	C517.516663,404.073303 514.917053,404.553528 511.020782,404.966919 
	C513.012634,402.805267 514.250061,401.363892 515.588928,400.023773 
	C549.629517,365.951538 583.681702,331.890869 617.729187,297.825439 
	C623.639221,291.912292 623.665161,289.611084 617.827026,283.768250 
	C598.979858,264.905853 580.124756,246.051407 561.262939,227.203690 
	C555.382751,221.327927 553.084717,221.337677 547.200562,227.222305 
	C507.135620,267.290192 467.050201,307.337646 427.067291,347.487183 
	C424.492584,350.072632 421.948486,351.088806 418.327087,351.063843 
	C395.829834,350.908569 373.330963,350.989716 350.832642,350.975220 
	C349.465881,350.974335 348.099152,350.825623 345.889801,350.696411 
	C347.654297,349.512848 348.607666,348.880249 349.554108,348.237396 
	C358.498688,342.162689 361.850006,332.560852 358.721375,321.978668 
	C356.087952,313.071472 347.079620,306.511261 337.364471,305.871124 
	C335.184845,305.727539 332.642212,304.427551 331.061279,302.859039 
	C305.625824,277.623108 280.324554,252.251968 254.978928,226.925385 
	C249.510056,221.460648 246.990799,221.452545 241.628403,226.798386 
	C234.901001,233.504974 228.190445,240.228470 221.475006,246.947037 
	C208.633224,259.794861 195.858780,272.711121 182.908432,285.448547 
	C179.448364,288.851715 179.283798,291.913025 182.453735,295.362274 
	C183.580414,296.588226 184.734467,297.790710 185.911697,298.968231 
	C218.432312,331.496613 250.959167,364.018738 283.476288,396.550598 
	C284.850861,397.925842 286.142120,399.384308 288.758636,402.177124 
	C286.690063,403.490021 284.721771,404.299408 283.329865,405.687012 
	C250.401230,438.514252 217.526062,471.395172 184.664413,504.289520 
	C178.535553,510.424438 178.566925,512.120056 184.560303,518.118896 
	C203.288727,536.864380 222.018112,555.608765 240.750565,574.350220 
	C247.287506,580.890320 249.190399,580.869202 255.879318,574.181030 
	C295.829834,534.234375 335.748322,494.255585 375.821350,454.432220 
	C377.680450,452.584686 380.890015,451.242432 383.514648,451.165558 
	C395.336975,450.819122 407.180878,450.818939 419.003143,451.165771 
	C421.625977,451.242676 424.758270,452.631927 426.686768,454.446808 
	C434.814301,462.095551 442.574982,470.134125 450.969879,478.530121 
z"/>
<path fill="#040404" opacity="1.000000" stroke="none" 
	d="
M450.719849,478.280090 
	C442.574982,470.134125 434.814301,462.095551 426.686768,454.446808 
	C424.758270,452.631927 421.625977,451.242676 419.003143,451.165771 
	C407.180878,450.818939 395.336975,450.819122 383.514648,451.165558 
	C380.890015,451.242432 377.680450,452.584686 375.821350,454.432220 
	C335.748322,494.255585 295.829834,534.234375 255.879318,574.181030 
	C249.190399,580.869202 247.287506,580.890320 240.750565,574.350220 
	C222.018112,555.608765 203.288727,536.864380 184.560303,518.118896 
	C178.566925,512.120056 178.535553,510.424438 184.664413,504.289520 
	C217.526062,471.395172 250.401230,438.514252 283.329865,405.687012 
	C284.721771,404.299408 286.690063,403.490021 288.758636,402.177124 
	C286.142120,399.384308 284.850861,397.925842 283.476288,396.550598 
	C250.959167,364.018738 218.432312,331.496613 185.911697,298.968231 
	C184.734467,297.790710 183.580414,296.588226 182.453735,295.362274 
	C179.283798,291.913025 179.448364,288.851715 182.908432,285.448547 
	C195.858780,272.711121 208.633224,259.794861 221.475006,246.947037 
	C228.190445,240.228470 234.901001,233.504974 241.628403,226.798386 
	C246.990799,221.452545 249.510056,221.460648 254.978928,226.925385 
	C280.324554,252.251968 305.625824,277.623108 331.061279,302.859039 
	C332.642212,304.427551 335.184845,305.727539 337.364471,305.871124 
	C347.079620,306.511261 356.087952,313.071472 358.721375,321.978668 
	C361.850006,332.560852 358.498688,342.162689 349.554108,348.237396 
	C348.607666,348.880249 347.654297,349.512848 345.889801,350.696411 
	C348.099152,350.825623 349.465881,350.974335 350.832642,350.975220 
	C373.330963,350.989716 395.829834,350.908569 418.327087,351.063843 
	C421.948486,351.088806 424.492584,350.072632 427.067291,347.487183 
	C467.050201,307.337646 507.135620,267.290192 547.200562,227.222305 
	C553.084717,221.337677 555.382751,221.327927 561.262939,227.203690 
	C580.124756,246.051407 598.979858,264.905853 617.827026,283.768250 
	C623.665161,289.611084 623.639221,291.912292 617.729187,297.825439 
	C583.681702,331.890869 549.629517,365.951538 515.588928,400.023773 
	C514.250061,401.363892 513.012634,402.805267 511.020782,404.966919 
	C514.917053,404.553528 517.516663,404.073303 520.122559,404.035858 
	C532.769165,403.854156 542.510254,413.430237 543.144104,426.079468 
	C543.252930,428.251709 544.591431,430.808441 546.162476,432.394501 
	C569.969849,456.430084 593.912109,480.332031 617.819763,504.268311 
	C623.673645,510.129150 623.667969,512.387573 617.734985,518.324402 
	C599.004272,537.067505 580.266052,555.803162 561.524292,574.535278 
	C555.252014,580.804382 553.171326,580.773499 546.749268,574.349243 
	C514.821472,542.410889 482.896088,510.470062 450.719849,478.280090 
M255.132965,533.806458 
	C250.514099,534.129761 245.895233,534.453125 241.222824,534.780212 
	C243.489197,537.313965 245.728378,539.817322 248.273956,542.663208 
	C251.199997,539.397583 253.610260,536.707581 256.395294,533.920349 
	C256.378906,533.738525 256.362488,533.556641 256.346100,533.374817 
	C256.221375,533.572876 256.096619,533.770874 255.132965,533.806458 
M226.084656,299.355377 
	C226.201645,299.281830 226.318649,299.208313 226.435638,299.134766 
	C226.287430,299.092468 226.139236,299.050171 226.166473,298.161194 
	C225.945908,293.206329 225.725342,288.251465 225.467804,282.466156 
	C222.776077,285.849640 220.494583,288.717468 218.002151,291.850464 
	C220.135727,293.754456 223.070770,296.373718 226.084656,299.355377 
M498.052338,435.611877 
	C498.302551,435.565491 498.552795,435.519104 498.803009,435.472748 
	C498.634827,435.218597 498.466614,434.964447 498.240814,433.815460 
	C498.240814,428.458160 498.240814,423.100891 498.240814,418.175323 
	C495.726196,420.944550 492.807953,424.158203 489.704468,427.575928 
	C492.046875,429.782440 494.926270,432.494751 498.052338,435.611877 
M513.003662,449.289764 
	C512.730286,449.352905 512.456970,449.416046 512.183594,449.479187 
	C512.387329,449.717255 512.591064,449.955322 513.107727,450.784729 
	C523.806396,461.512970 534.927124,471.862976 545.024292,483.130280 
	C550.015503,488.699921 555.716248,488.046844 562.558105,488.931610 
	C561.392761,487.435364 560.882996,486.602417 560.206665,485.939392 
	C550.821045,476.737854 541.155945,467.803558 532.107666,458.282623 
	C526.824707,452.723724 521.474243,448.471527 513.003662,449.289764 
M270.650818,519.822693 
	C301.315674,489.213959 332.037445,458.661743 362.569733,427.921265 
	C366.184479,424.281830 369.881287,422.846985 374.910156,422.910858 
	C392.405334,423.133087 409.906860,423.133850 427.401978,422.908173 
	C432.268372,422.845428 435.836914,424.240967 439.311890,427.736145 
	C468.450653,457.044189 497.757111,486.185486 527.023804,515.366211 
	C528.358276,516.696777 529.794983,517.924744 531.184082,519.200500 
	C531.669373,518.941528 532.154663,518.682495 532.639954,518.423462 
	C531.516479,514.447021 531.180176,509.975250 529.069092,506.620117 
	C526.464722,502.480957 522.451843,499.202972 518.929810,495.670319 
	C497.986267,474.663696 477.005829,453.693878 456.044617,432.704834 
	C450.569489,427.222443 450.570618,425.100372 456.196503,419.526031 
	C473.235352,402.643219 490.339661,385.826416 507.348267,368.913269 
	C524.600830,351.757538 541.773743,334.521576 558.966248,317.305511 
	C560.075806,316.194397 561.054382,314.952454 562.838684,312.925079 
	C555.713196,313.775909 550.319397,313.835785 545.312195,318.986969 
	C515.469299,349.687775 485.083893,379.860535 455.002106,410.330536 
	C451.683502,413.691986 448.156738,415.085876 443.509888,415.062561 
	C418.513367,414.937134 393.515503,415.065033 368.519073,414.931396 
	C365.079376,414.912994 362.647705,415.889679 360.220490,418.348022 
	C332.713348,446.208008 305.282990,474.149384 277.356445,501.584900 
	C271.781555,507.061737 270.000458,512.884460 269.601898,520.018372 
	C269.608124,520.223877 269.614349,520.429443 269.620605,520.634949 
	C269.747467,520.423340 269.874359,520.211670 270.650818,519.822693 
M461.916656,464.583466 
	C452.360657,455.050690 442.909546,445.408173 433.153076,436.085175 
	C431.375214,434.386292 428.363892,433.165771 425.900452,433.128021 
	C409.240723,432.872620 392.573181,432.867859 375.913788,433.134247 
	C373.471039,433.173309 370.472961,434.489380 368.720825,436.217407 
	C348.077698,456.576843 327.622803,477.127106 307.119232,497.628021 
	C289.325867,515.419128 271.498535,533.176514 253.772919,551.034851 
	C250.535492,554.296509 247.160034,555.281799 243.790192,551.970764 
	C231.429565,539.825989 219.244980,527.501770 207.017349,515.221985 
	C204.792404,512.987488 204.696945,510.529053 206.701950,508.085388 
	C207.963440,506.547852 209.255005,505.021759 210.659073,503.616425 
	C243.519058,470.727386 276.387665,437.846954 309.303101,405.013428 
	C310.567871,403.751740 312.313477,402.972015 313.958282,401.886383 
	C312.202148,400.027313 311.548065,399.299591 310.857208,398.608643 
	C286.704346,374.451294 262.547699,350.297760 238.392380,326.142853 
	C228.848099,316.598724 219.285278,307.072998 209.770020,297.500000 
	C203.774612,291.468231 203.782227,289.934448 209.627472,284.081940 
	C220.343292,273.352814 231.069794,262.634338 241.795761,251.915390 
	C247.099655,246.614960 249.350250,246.595291 254.622055,251.885239 
	C275.559631,272.894897 296.384216,294.018860 317.496490,314.851318 
	C321.925659,319.221741 324.334473,323.506561 324.164429,330.005524 
	C323.911285,339.680542 334.871765,345.321869 343.251678,340.397675 
	C348.354309,337.399231 351.022980,331.682953 349.698730,326.588074 
	C348.047302,320.234772 343.087921,315.834656 336.923584,316.087860 
	C331.838531,316.296753 328.181366,314.594269 324.651245,310.928772 
	C313.556213,299.408325 302.125977,288.210602 290.821838,276.891602 
	C276.721863,262.773132 262.618195,248.658356 248.428589,234.454330 
	C229.510345,253.389648 210.810410,272.106476 191.838058,291.095947 
	C192.768860,291.937744 194.054245,293.002655 195.229752,294.177490 
	C228.703049,327.631531 262.165558,361.096313 295.628998,394.560211 
	C301.001343,399.932648 301.025909,402.040955 295.766754,407.300476 
	C262.539886,440.529602 229.322388,473.768097 196.044296,506.945831 
	C194.650116,508.335846 192.685333,509.153595 191.720444,509.769440 
	C211.541458,529.559265 230.238068,548.226379 248.957825,566.916687 
	C289.293396,526.599976 329.981110,485.988708 370.553955,445.263031 
	C373.646515,442.158844 376.893585,440.906372 381.159821,440.951996 
	C394.655823,441.096283 408.157501,441.169678 421.650116,440.911285 
	C426.053619,440.826935 429.095001,442.332947 432.130249,445.381714 
	C471.515167,484.942169 511.014526,524.388611 550.422913,563.925720 
	C551.668823,565.175720 552.250732,567.087524 552.851013,568.167175 
	C572.827148,548.266418 591.447144,529.716614 610.903687,510.333405 
	C609.556458,509.361145 607.886780,508.465302 606.602295,507.183411 
	C583.602539,484.229828 560.675476,461.203430 537.654358,438.271271 
	C534.683411,435.311707 532.968018,432.457916 533.263733,427.854431 
	C533.854187,418.664062 525.119873,411.838959 516.859863,414.374512 
	C510.132355,416.439636 506.671692,422.479889 507.835968,430.124725 
	C508.794922,436.421204 513.462524,440.313934 520.560852,439.910248 
	C525.648438,439.620911 529.239380,441.308411 532.822815,444.917450 
	C553.006958,465.245605 573.436523,485.330078 593.772583,505.507507 
	C598.105286,509.806458 598.142334,512.574768 593.831909,516.902771 
	C582.778625,528.001160 571.690552,539.065063 560.606567,550.132874 
	C555.322693,555.409058 553.073914,555.399414 547.767090,550.113037 
	C519.315674,521.771118 490.866577,493.426880 461.916656,464.583466 
M423.994324,360.992981 
	C392.663727,360.993408 361.332611,361.070465 330.003357,360.865295 
	C327.149506,360.846588 323.548523,359.804932 321.577728,357.906311 
	C302.385406,339.416901 283.457764,320.652588 264.480316,301.940582 
	C261.840881,299.338074 260.108276,296.841736 261.081116,292.365967 
	C262.560669,285.558960 256.413940,278.427307 249.803436,277.907257 
	C241.925873,277.287506 235.625290,282.481445 235.042465,290.075592 
	C234.520004,296.883179 240.427368,304.752045 247.145050,303.859314 
	C253.454788,303.020874 257.011780,305.320221 260.904846,309.251617 
	C279.550049,328.080475 298.384705,346.721985 316.991058,365.588806 
	C319.568634,368.202423 322.117828,369.089661 325.681610,369.076843 
	C359.013245,368.956787 392.345581,368.964569 425.677307,369.071106 
	C428.907928,369.081421 431.184875,368.189331 433.498291,365.874817 
	C471.552582,327.801086 509.701263,289.821747 547.829895,251.822342 
	C553.085632,246.584427 555.332214,246.597427 560.673035,251.932327 
	C571.520813,262.768188 582.363831,273.608917 593.197144,284.459229 
	C598.422974,289.693176 598.381104,291.920685 593.000488,297.280701 
	C551.213135,338.908203 509.423126,380.533051 467.639465,422.164246 
	C466.358276,423.440826 465.137299,424.777863 463.168976,426.840454 
	C464.681213,427.962006 466.160858,428.794037 467.312164,429.952454 
	C490.681274,453.465881 514.072571,476.958160 537.248535,500.660919 
	C539.308228,502.767395 541.083984,506.331512 540.988464,509.150787 
	C540.662659,518.769287 546.816956,525.149780 556.349243,524.063965 
	C563.362305,523.265076 568.418579,515.980835 567.030884,508.675415 
	C565.765991,502.016235 558.621826,496.951660 552.366150,498.547760 
	C549.049927,499.393921 546.680664,498.538177 544.318909,496.164917 
	C523.276001,475.019226 502.141846,453.964355 481.072021,432.845398 
	C475.645538,427.406250 475.729095,425.725616 481.276642,420.173828 
	C523.096191,378.322479 564.909912,336.465332 606.774841,294.659454 
	C608.047852,293.388245 609.860962,292.657928 611.291809,291.757538 
	C591.522461,272.007355 572.910583,253.413498 553.351135,233.873047 
	C552.390198,235.269577 551.551025,236.993896 550.270142,238.277466 
	C510.833588,277.797821 471.372772,317.294098 431.821381,356.699371 
	C429.946838,358.566986 427.209595,359.568726 423.994324,360.992981 
M308.432190,419.932190 
	C285.793640,442.571228 263.155090,465.210236 239.624466,488.741364 
	C246.542999,489.378662 250.964737,488.985718 255.343674,484.545929 
	C286.111176,453.351044 317.250885,422.523590 348.149231,391.456940 
	C351.353088,388.235657 354.681885,386.894928 359.178497,386.921661 
	C384.001282,387.069244 408.825562,387.032837 433.648682,386.914642 
	C435.621887,386.905212 437.961060,386.277130 439.483795,385.100220 
	C442.756073,382.571228 445.676941,379.567078 448.618286,376.633698 
	C474.924652,350.399048 501.102264,324.033875 527.588684,297.982452 
	C532.184814,293.461761 530.898010,288.371185 531.496582,283.187592 
	C529.550842,284.240387 528.122375,285.550720 526.750977,286.918335 
	C497.376282,316.210602 467.976227,345.477570 438.687714,374.855743 
	C435.753174,377.799286 432.702148,379.085846 428.550232,379.072601 
	C393.064423,378.959381 357.577942,378.958984 322.092133,379.076050 
	C318.135803,379.089111 315.228882,377.983307 312.412048,375.132904 
	C293.909729,356.410065 275.004791,338.077789 256.798340,319.074738 
	C251.902802,313.965027 246.555115,313.613190 239.644516,312.944122 
	C241.488678,314.933868 242.657883,316.281250 243.915833,317.539948 
	C269.707123,343.347321 295.514221,369.138947 321.303009,394.948792 
	C326.159149,399.808868 326.140015,402.174927 321.297943,407.058838 
	C317.192566,411.199677 313.055450,415.309021 308.432190,419.932190 
M472.328308,366.828003 
	C463.322632,375.716461 454.233887,384.523254 445.363434,393.544647 
	C442.801270,396.150421 440.110870,397.078491 436.524109,397.061432 
	C411.358154,396.941681 386.190613,396.913055 361.026001,397.132935 
	C358.583466,397.154297 355.555237,398.453094 353.813049,400.181305 
	C322.220520,431.519653 290.748627,462.980103 259.367767,494.530670 
	C256.204041,497.711517 253.085373,499.285309 248.448471,499.013641 
	C238.187012,498.412476 231.937103,507.659546 235.765503,517.220520 
	C238.094147,523.036011 245.355240,526.363953 251.476913,524.421387 
	C257.325623,522.565491 262.332916,515.743225 260.717743,510.834229 
	C259.368530,506.733551 260.852081,504.298767 263.521057,501.619873 
	C293.859924,471.168274 324.200653,440.717712 354.346558,410.075653 
	C358.078247,406.282532 361.864624,404.860291 367.076172,404.905243 
	C392.074188,405.120819 417.075653,405.075562 442.074005,404.880096 
	C444.390533,404.861969 446.941071,403.491577 448.938019,402.107208 
	C451.225983,400.521118 453.031464,398.232574 455.021942,396.224792 
	C484.820190,366.167633 514.578308,336.070312 544.509277,306.145966 
	C546.112488,304.543121 549.269897,303.463806 551.519348,303.725647 
	C559.257202,304.626251 566.312561,299.997406 567.093872,292.808411 
	C567.979797,284.656921 562.189636,277.949799 554.186523,277.857117 
	C546.512146,277.768219 540.013306,284.360748 541.202515,292.170715 
	C541.933411,296.970123 539.961487,299.632812 537.024658,302.542603 
	C515.596008,323.774231 494.221863,345.060883 472.328308,366.828003 
M314.068970,332.166595 
	C314.779572,327.465363 312.782562,324.162231 309.408966,320.888580 
	C297.471405,309.304565 285.848816,297.396118 274.093689,285.623779 
	C272.961060,284.489502 271.737335,283.446198 270.725800,282.516754 
	C268.956512,291.690948 273.242493,298.029205 279.959198,303.326263 
	C282.035004,304.963318 283.737152,307.069580 285.642761,308.927795 
	C293.853882,316.934692 302.039459,324.968750 310.353516,332.867493 
	C311.187439,333.659760 312.753845,337.389343 314.068970,332.166595 
M576.280334,298.626404 
	C579.345276,296.164856 582.410278,293.703308 584.476379,292.043976 
	C581.456299,288.260773 579.041016,285.235168 576.942932,282.606964 
	C576.642883,287.793976 576.350891,292.843018 576.280334,298.626404 
M581.393555,507.077271 
	C579.904297,505.664429 578.414978,504.251617 576.495728,502.430908 
	C576.495728,508.689117 576.495728,514.060364 576.495728,518.915527 
	C579.085144,516.474487 581.977112,513.748291 584.997925,510.900635 
	C583.895752,509.720398 582.895874,508.649811 581.393555,507.077271 
M560.592773,536.070557 
	C561.285645,535.215820 561.978516,534.361084 562.651855,533.530396 
	C557.029541,533.530396 551.660706,533.530396 545.218750,533.530396 
	C548.665894,536.470886 551.600769,538.974426 555.627563,542.409424 
	C556.876648,540.775635 558.483093,538.674438 560.592773,536.070557 
M254.542099,265.954559 
	C252.673035,263.703857 250.803955,261.453125 248.679337,258.894653 
	C245.048141,262.689514 242.463425,265.390717 239.520721,268.466064 
	C245.800522,268.466064 251.079178,268.466064 256.735962,268.466064 
	C256.056488,267.661346 255.547318,267.058289 254.542099,265.954559 
M547.527039,266.145416 
	C547.044067,266.914032 546.561035,267.682617 546.075439,268.455322 
	C551.717346,268.455322 557.075867,268.455322 562.196838,268.455322 
	C559.644409,265.769165 556.889343,262.869781 553.393799,259.191101 
	C551.433350,261.551453 549.738708,263.591827 547.527039,266.145416 
M225.873001,518.575378 
	C225.613037,513.595581 225.353058,508.615784 225.130920,504.360504 
	C223.000565,506.160278 220.183350,508.540344 216.804977,511.394470 
	C220.137909,514.330566 222.910355,516.772827 225.873001,518.575378 
M239.892105,489.535797 
	C239.694489,489.528168 239.496887,489.520508 239.299271,489.512878 
	C239.394501,489.606110 239.489731,489.699310 239.892105,489.535797 
M563.255493,489.501038 
	C563.255493,489.501038 563.462891,489.589111 563.462891,489.589111 
	C563.462891,489.589111 563.416382,489.408539 563.255493,489.501038 
M314.528809,336.148010 
	C314.443665,336.233032 314.296478,336.314178 314.290863,336.404175 
	C314.285248,336.493835 314.421661,336.592346 314.495819,336.686951 
	C314.581146,336.602081 314.666443,336.517242 314.528809,336.148010 
M575.602173,501.578644 
	C575.602173,501.578644 575.436462,501.478668 575.436462,501.478668 
	C575.436462,501.478668 575.459412,501.696625 575.602173,501.578644 
M563.399780,312.594910 
	C563.399780,312.594910 563.503113,312.419006 563.503113,312.419006 
	C563.503113,312.419006 563.270874,312.446350 563.399780,312.594910 
M575.677124,300.458832 
	C575.677124,300.458832 575.443176,300.313599 575.443176,300.313599 
	C575.443176,300.313599 575.473572,300.629883 575.677124,300.458832 
M532.378296,520.407776 
	C532.378296,520.407776 532.582642,520.522156 532.582642,520.522156 
	C532.582642,520.522156 532.546021,520.258545 532.378296,520.407776 
M544.500671,532.492126 
	C544.500671,532.492126 544.556824,532.485474 544.500671,532.492126 
M532.499023,281.779419 
	C532.499023,281.779419 532.599548,281.529236 532.599548,281.529236 
	C532.599548,281.529236 532.379822,281.590088 532.499023,281.779419 
M226.658829,281.612946 
	C226.658829,281.612946 226.463516,281.508514 226.463516,281.508514 
	C226.463516,281.508514 226.504761,281.765167 226.658829,281.612946 
z"/>
<path fill="#F8F8F8" opacity="1.000000" stroke="none" 
	d="
M462.166687,464.833435 
	C490.866577,493.426880 519.315674,521.771118 547.767090,550.113037 
	C553.073914,555.399414 555.322693,555.409058 560.606567,550.132874 
	C571.690552,539.065063 582.778625,528.001160 593.831909,516.902771 
	C598.142334,512.574768 598.105286,509.806458 593.772583,505.507507 
	C573.436523,485.330078 553.006958,465.245605 532.822815,444.917450 
	C529.239380,441.308411 525.648438,439.620911 520.560852,439.910248 
	C513.462524,440.313934 508.794922,436.421204 507.835968,430.124725 
	C506.671692,422.479889 510.132355,416.439636 516.859863,414.374512 
	C525.119873,411.838959 533.854187,418.664062 533.263733,427.854431 
	C532.968018,432.457916 534.683411,435.311707 537.654358,438.271271 
	C560.675476,461.203430 583.602539,484.229828 606.602295,507.183411 
	C607.886780,508.465302 609.556458,509.361145 610.903687,510.333405 
	C591.447144,529.716614 572.827148,548.266418 552.851013,568.167175 
	C552.250732,567.087524 551.668823,565.175720 550.422913,563.925720 
	C511.014526,524.388611 471.515167,484.942169 432.130249,445.381714 
	C429.095001,442.332947 426.053619,440.826935 421.650116,440.911285 
	C408.157501,441.169678 394.655823,441.096283 381.159821,440.951996 
	C376.893585,440.906372 373.646515,442.158844 370.553955,445.263031 
	C329.981110,485.988708 289.293396,526.599976 248.957825,566.916687 
	C230.238068,548.226379 211.541458,529.559265 191.720444,509.769440 
	C192.685333,509.153595 194.650116,508.335846 196.044296,506.945831 
	C229.322388,473.768097 262.539886,440.529602 295.766754,407.300476 
	C301.025909,402.040955 301.001343,399.932648 295.628998,394.560211 
	C262.165558,361.096313 228.703049,327.631531 195.229752,294.177490 
	C194.054245,293.002655 192.768860,291.937744 191.838058,291.095947 
	C210.810410,272.106476 229.510345,253.389648 248.428589,234.454330 
	C262.618195,248.658356 276.721863,262.773132 290.821838,276.891602 
	C302.125977,288.210602 313.556213,299.408325 324.651245,310.928772 
	C328.181366,314.594269 331.838531,316.296753 336.923584,316.087860 
	C343.087921,315.834656 348.047302,320.234772 349.698730,326.588074 
	C351.022980,331.682953 348.354309,337.399231 343.251678,340.397675 
	C334.871765,345.321869 323.911285,339.680542 324.164429,330.005524 
	C324.334473,323.506561 321.925659,319.221741 317.496490,314.851318 
	C296.384216,294.018860 275.559631,272.894897 254.622055,251.885239 
	C249.350250,246.595291 247.099655,246.614960 241.795761,251.915390 
	C231.069794,262.634338 220.343292,273.352814 209.627472,284.081940 
	C203.782227,289.934448 203.774612,291.468231 209.770020,297.500000 
	C219.285278,307.072998 228.848099,316.598724 238.392380,326.142853 
	C262.547699,350.297760 286.704346,374.451294 310.857208,398.608643 
	C311.548065,399.299591 312.202148,400.027313 313.958282,401.886383 
	C312.313477,402.972015 310.567871,403.751740 309.303101,405.013428 
	C276.387665,437.846954 243.519058,470.727386 210.659073,503.616425 
	C209.255005,505.021759 207.963440,506.547852 206.701950,508.085388 
	C204.696945,510.529053 204.792404,512.987488 207.017349,515.221985 
	C219.244980,527.501770 231.429565,539.825989 243.790192,551.970764 
	C247.160034,555.281799 250.535492,554.296509 253.772919,551.034851 
	C271.498535,533.176514 289.325867,515.419128 307.119232,497.628021 
	C327.622803,477.127106 348.077698,456.576843 368.720825,436.217407 
	C370.472961,434.489380 373.471039,433.173309 375.913788,433.134247 
	C392.573181,432.867859 409.240723,432.872620 425.900452,433.128021 
	C428.363892,433.165771 431.375214,434.386292 433.153076,436.085175 
	C442.909546,445.408173 452.360657,455.050690 462.166687,464.833435 
z"/>
<path fill="#F8F8F8" opacity="1.000000" stroke="none" 
	d="
M424.434204,360.983337 
	C427.209595,359.568726 429.946838,358.566986 431.821381,356.699371 
	C471.372772,317.294098 510.833588,277.797821 550.270142,238.277466 
	C551.551025,236.993896 552.390198,235.269577 553.351135,233.873047 
	C572.910583,253.413498 591.522461,272.007355 611.291809,291.757538 
	C609.860962,292.657928 608.047852,293.388245 606.774841,294.659454 
	C564.909912,336.465332 523.096191,378.322479 481.276642,420.173828 
	C475.729095,425.725616 475.645538,427.406250 481.072021,432.845398 
	C502.141846,453.964355 523.276001,475.019226 544.318909,496.164917 
	C546.680664,498.538177 549.049927,499.393921 552.366150,498.547760 
	C558.621826,496.951660 565.765991,502.016235 567.030884,508.675415 
	C568.418579,515.980835 563.362305,523.265076 556.349243,524.063965 
	C546.816956,525.149780 540.662659,518.769287 540.988464,509.150787 
	C541.083984,506.331512 539.308228,502.767395 537.248535,500.660919 
	C514.072571,476.958160 490.681274,453.465881 467.312164,429.952454 
	C466.160858,428.794037 464.681213,427.962006 463.168976,426.840454 
	C465.137299,424.777863 466.358276,423.440826 467.639465,422.164246 
	C509.423126,380.533051 551.213135,338.908203 593.000488,297.280701 
	C598.381104,291.920685 598.422974,289.693176 593.197144,284.459229 
	C582.363831,273.608917 571.520813,262.768188 560.673035,251.932327 
	C555.332214,246.597427 553.085632,246.584427 547.829895,251.822342 
	C509.701263,289.821747 471.552582,327.801086 433.498291,365.874817 
	C431.184875,368.189331 428.907928,369.081421 425.677307,369.071106 
	C392.345581,368.964569 359.013245,368.956787 325.681610,369.076843 
	C322.117828,369.089661 319.568634,368.202423 316.991058,365.588806 
	C298.384705,346.721985 279.550049,328.080475 260.904846,309.251617 
	C257.011780,305.320221 253.454788,303.020874 247.145050,303.859314 
	C240.427368,304.752045 234.520004,296.883179 235.042465,290.075592 
	C235.625290,282.481445 241.925873,277.287506 249.803436,277.907257 
	C256.413940,278.427307 262.560669,285.558960 261.081116,292.365967 
	C260.108276,296.841736 261.840881,299.338074 264.480316,301.940582 
	C283.457764,320.652588 302.385406,339.416901 321.577728,357.906311 
	C323.548523,359.804932 327.149506,360.846588 330.003357,360.865295 
	C361.332611,361.070465 392.663727,360.993408 424.434204,360.983337 
z"/>
<path fill="#572889" opacity="1.000000" stroke="none" 
	d="
M308.682281,419.682251 
	C313.055450,415.309021 317.192566,411.199677 321.297943,407.058838 
	C326.140015,402.174927 326.159149,399.808868 321.303009,394.948792 
	C295.514221,369.138947 269.707123,343.347321 243.915833,317.539948 
	C242.657883,316.281250 241.488678,314.933868 239.644516,312.944122 
	C246.555115,313.613190 251.902802,313.965027 256.798340,319.074738 
	C275.004791,338.077789 293.909729,356.410065 312.412048,375.132904 
	C315.228882,377.983307 318.135803,379.089111 322.092133,379.076050 
	C357.577942,378.958984 393.064423,378.959381 428.550232,379.072601 
	C432.702148,379.085846 435.753174,377.799286 438.687714,374.855743 
	C467.976227,345.477570 497.376282,316.210602 526.750977,286.918335 
	C528.122375,285.550720 529.550842,284.240387 531.496582,283.187592 
	C530.898010,288.371185 532.184814,293.461761 527.588684,297.982452 
	C501.102264,324.033875 474.924652,350.399048 448.618286,376.633698 
	C445.676941,379.567078 442.756073,382.571228 439.483795,385.100220 
	C437.961060,386.277130 435.621887,386.905212 433.648682,386.914642 
	C408.825562,387.032837 384.001282,387.069244 359.178497,386.921661 
	C354.681885,386.894928 351.353088,388.235657 348.149231,391.456940 
	C317.250885,422.523590 286.111176,453.351044 255.343674,484.545929 
	C250.964737,488.985718 246.542999,489.378662 239.624466,488.741364 
	C263.155090,465.210236 285.793640,442.571228 308.682281,419.682251 
z"/>
<path fill="#562888" opacity="1.000000" stroke="none" 
	d="
M269.998779,520.000000 
	C270.000458,512.884460 271.781555,507.061737 277.356445,501.584900 
	C305.282990,474.149384 332.713348,446.208008 360.220490,418.348022 
	C362.647705,415.889679 365.079376,414.912994 368.519073,414.931396 
	C393.515503,415.065033 418.513367,414.937134 443.509888,415.062561 
	C448.156738,415.085876 451.683502,413.691986 455.002106,410.330536 
	C485.083893,379.860535 515.469299,349.687775 545.312195,318.986969 
	C550.319397,313.835785 555.713196,313.775909 562.838684,312.925079 
	C561.054382,314.952454 560.075806,316.194397 558.966248,317.305511 
	C541.773743,334.521576 524.600830,351.757538 507.348267,368.913269 
	C490.339661,385.826416 473.235352,402.643219 456.196503,419.526031 
	C450.570618,425.100372 450.569489,427.222443 456.044617,432.704834 
	C477.005829,453.693878 497.986267,474.663696 518.929810,495.670319 
	C522.451843,499.202972 526.464722,502.480957 529.069092,506.620117 
	C531.180176,509.975250 531.516479,514.447021 532.639954,518.423462 
	C532.154663,518.682495 531.669373,518.941528 531.184082,519.200500 
	C529.794983,517.924744 528.358276,516.696777 527.023804,515.366211 
	C497.757111,486.185486 468.450653,457.044189 439.311890,427.736145 
	C435.836914,424.240967 432.268372,422.845428 427.401978,422.908173 
	C409.906860,423.133850 392.405334,423.133087 374.910156,422.910858 
	C369.881287,422.846985 366.184479,424.281830 362.569733,427.921265 
	C332.037445,458.661743 301.315674,489.213959 270.325409,519.911377 
	C270.000000,520.000000 269.998779,520.000000 269.998779,520.000000 
z"/>
<path fill="#FAFAFA" opacity="1.000000" stroke="none" 
	d="
M472.579407,366.579102 
	C494.221863,345.060883 515.596008,323.774231 537.024658,302.542603 
	C539.961487,299.632812 541.933411,296.970123 541.202515,292.170715 
	C540.013306,284.360748 546.512146,277.768219 554.186523,277.857117 
	C562.189636,277.949799 567.979797,284.656921 567.093872,292.808411 
	C566.312561,299.997406 559.257202,304.626251 551.519348,303.725647 
	C549.269897,303.463806 546.112488,304.543121 544.509277,306.145966 
	C514.578308,336.070312 484.820190,366.167633 455.021942,396.224792 
	C453.031464,398.232574 451.225983,400.521118 448.938019,402.107208 
	C446.941071,403.491577 444.390533,404.861969 442.074005,404.880096 
	C417.075653,405.075562 392.074188,405.120819 367.076172,404.905243 
	C361.864624,404.860291 358.078247,406.282532 354.346558,410.075653 
	C324.200653,440.717712 293.859924,471.168274 263.521057,501.619873 
	C260.852081,504.298767 259.368530,506.733551 260.717743,510.834229 
	C262.332916,515.743225 257.325623,522.565491 251.476913,524.421387 
	C245.355240,526.363953 238.094147,523.036011 235.765503,517.220520 
	C231.937103,507.659546 238.187012,498.412476 248.448471,499.013641 
	C253.085373,499.285309 256.204041,497.711517 259.367767,494.530670 
	C290.748627,462.980103 322.220520,431.519653 353.813049,400.181305 
	C355.555237,398.453094 358.583466,397.154297 361.026001,397.132935 
	C386.190613,396.913055 411.358154,396.941681 436.524109,397.061432 
	C440.110870,397.078491 442.801270,396.150421 445.363434,393.544647 
	C454.233887,384.523254 463.322632,375.716461 472.579407,366.579102 
z"/>
<path fill="#562787" opacity="1.000000" stroke="none" 
	d="
M314.089783,332.584290 
	C312.753845,337.389343 311.187439,333.659760 310.353516,332.867493 
	C302.039459,324.968750 293.853882,316.934692 285.642761,308.927795 
	C283.737152,307.069580 282.035004,304.963318 279.959198,303.326263 
	C273.242493,298.029205 268.956512,291.690948 270.725800,282.516754 
	C271.737335,283.446198 272.961060,284.489502 274.093689,285.623779 
	C285.848816,297.396118 297.471405,309.304565 309.408966,320.888580 
	C312.782562,324.162231 314.779572,327.465363 314.089783,332.584290 
z"/>
<path fill="#58298B" opacity="1.000000" stroke="none" 
	d="
M513.341003,449.650726 
	C521.474243,448.471527 526.824707,452.723724 532.107666,458.282623 
	C541.155945,467.803558 550.821045,476.737854 560.206665,485.939392 
	C560.882996,486.602417 561.392761,487.435364 562.558105,488.931610 
	C555.716248,488.046844 550.015503,488.699921 545.024292,483.130280 
	C534.927124,471.862976 523.806396,461.512970 513.088745,450.354309 
	C513.069702,449.923889 513.341003,449.650726 513.341003,449.650726 
z"/>
<path fill="#562887" opacity="1.000000" stroke="none" 
	d="
M497.805695,435.207062 
	C494.926270,432.494751 492.046875,429.782440 489.704468,427.575928 
	C492.807953,424.158203 495.726196,420.944550 498.240814,418.175323 
	C498.240814,423.100891 498.240814,428.458160 498.145630,434.386292 
	C498.050476,434.957092 497.805695,435.207062 497.805695,435.207062 
z"/>
<path fill="#542783" opacity="1.000000" stroke="none" 
	d="
M576.169556,298.259216 
	C576.350891,292.843018 576.642883,287.793976 576.942932,282.606964 
	C579.041016,285.235168 581.456299,288.260773 584.476379,292.043976 
	C582.410278,293.703308 579.345276,296.164856 576.169556,298.259216 
z"/>
<path fill="#532683" opacity="1.000000" stroke="none" 
	d="
M581.644775,507.328247 
	C582.895874,508.649811 583.895752,509.720398 584.997925,510.900635 
	C581.977112,513.748291 579.085144,516.474487 576.495728,518.915527 
	C576.495728,514.060364 576.495728,508.689117 576.495728,502.430908 
	C578.414978,504.251617 579.904297,505.664429 581.644775,507.328247 
z"/>
<path fill="#532682" opacity="1.000000" stroke="none" 
	d="
M560.341187,536.321899 
	C558.483093,538.674438 556.876648,540.775635 555.627563,542.409424 
	C551.600769,538.974426 548.665894,536.470886 545.218750,533.530396 
	C551.660706,533.530396 557.029541,533.530396 562.651855,533.530396 
	C561.978516,534.361084 561.285645,535.215820 560.341187,536.321899 
z"/>
<path fill="#542784" opacity="1.000000" stroke="none" 
	d="
M254.790115,266.204895 
	C255.547318,267.058289 256.056488,267.661346 256.735962,268.466064 
	C251.079178,268.466064 245.800522,268.466064 239.520721,268.466064 
	C242.463425,265.390717 245.048141,262.689514 248.679337,258.894653 
	C250.803955,261.453125 252.673035,263.703857 254.790115,266.204895 
z"/>
<path fill="#542785" opacity="1.000000" stroke="none" 
	d="
M547.785522,265.888794 
	C549.738708,263.591827 551.433350,261.551453 553.393799,259.191101 
	C556.889343,262.869781 559.644409,265.769165 562.196838,268.455322 
	C557.075867,268.455322 551.717346,268.455322 546.075439,268.455322 
	C546.561035,267.682617 547.044067,266.914032 547.785522,265.888794 
z"/>
<path fill="#532682" opacity="1.000000" stroke="none" 
	d="
M226.005829,298.992981 
	C223.070770,296.373718 220.135727,293.754456 218.002151,291.850464 
	C220.494583,288.717468 222.776077,285.849640 225.467804,282.466156 
	C225.725342,288.251465 225.945908,293.206329 226.083069,298.580750 
	C225.999680,299.000275 226.005829,298.992981 226.005829,298.992981 
z"/>
<path fill="#532683" opacity="1.000000" stroke="none" 
	d="
M225.777893,518.895264 
	C222.910355,516.772827 220.137909,514.330566 216.804977,511.394470 
	C220.183350,508.540344 223.000565,506.160278 225.130920,504.360504 
	C225.353058,508.615784 225.613037,513.595581 225.777893,518.895264 
z"/>
<path fill="#532682" opacity="1.000000" stroke="none" 
	d="
M256.020508,534.017578 
	C253.610260,536.707581 251.199997,539.397583 248.273956,542.663208 
	C245.728378,539.817322 243.489197,537.313965 241.222824,534.780212 
	C245.895233,534.453125 250.514099,534.129761 255.564148,533.900635 
	C255.995331,533.994812 256.020508,534.017578 256.020508,534.017578 
z"/>
<path fill="#58298B" opacity="1.000000" stroke="none" 
	d="
M512.932251,450.058655 
	C512.591064,449.955322 512.387329,449.717255 512.183594,449.479187 
	C512.456970,449.416046 512.730286,449.352905 513.172363,449.470245 
	C513.341003,449.650726 513.069702,449.923889 512.932251,450.058655 
z"/>
<path fill="#562887" opacity="1.000000" stroke="none" 
	d="
M498.174438,434.833679 
	C498.466614,434.964447 498.634827,435.218597 498.803009,435.472748 
	C498.552795,435.519104 498.302551,435.565491 497.929016,435.409485 
	C497.805695,435.207062 498.050476,434.957092 498.174438,434.833679 
z"/>
<path fill="#572889" opacity="1.000000" stroke="none" 
	d="
M239.738541,489.664185 
	C239.489731,489.699310 239.394501,489.606110 239.299271,489.512878 
	C239.496887,489.520508 239.694489,489.528168 239.738541,489.664185 
z"/>
<path fill="#58298B" opacity="1.000000" stroke="none" 
	d="
M563.335938,489.454773 
	C563.416382,489.408539 563.462891,489.589111 563.462891,489.589111 
	C563.462891,489.589111 563.255493,489.501038 563.335938,489.454773 
z"/>
<path fill="#562787" opacity="1.000000" stroke="none" 
	d="
M314.640289,336.290192 
	C314.666443,336.517242 314.581146,336.602081 314.495819,336.686951 
	C314.421661,336.592346 314.285248,336.493835 314.290863,336.404175 
	C314.296478,336.314178 314.443665,336.233032 314.640289,336.290192 
z"/>
<path fill="#532683" opacity="1.000000" stroke="none" 
	d="
M575.530762,501.637634 
	C575.459412,501.696625 575.436462,501.478668 575.436462,501.478668 
	C575.436462,501.478668 575.602173,501.578644 575.530762,501.637634 
z"/>
<path fill="#562888" opacity="1.000000" stroke="none" 
	d="
M563.335327,312.520630 
	C563.270874,312.446350 563.503113,312.419006 563.503113,312.419006 
	C563.503113,312.419006 563.399780,312.594910 563.335327,312.520630 
z"/>
<path fill="#542783" opacity="1.000000" stroke="none" 
	d="
M575.575317,300.544373 
	C575.473572,300.629883 575.443176,300.313599 575.443176,300.313599 
	C575.443176,300.313599 575.677124,300.458832 575.575317,300.544373 
z"/>
<path fill="#532682" opacity="1.000000" stroke="none" 
	d="
M225.995361,299.004089 
	C226.139236,299.050171 226.287430,299.092468 226.435638,299.134766 
	C226.318649,299.208313 226.201645,299.281830 226.045242,299.174194 
	C226.005829,298.992981 225.999680,299.000275 225.995361,299.004089 
z"/>
<path fill="#562888" opacity="1.000000" stroke="none" 
	d="
M270.000610,520.000000 
	C269.874359,520.211670 269.747467,520.423340 269.620605,520.634949 
	C269.614349,520.429443 269.608124,520.223877 269.800354,520.009155 
	C269.998779,520.000000 270.000000,520.000000 270.000610,520.000000 
z"/>
<path fill="#562888" opacity="1.000000" stroke="none" 
	d="
M532.462158,520.333130 
	C532.546021,520.258545 532.582642,520.522156 532.582642,520.522156 
	C532.582642,520.522156 532.378296,520.407776 532.462158,520.333130 
z"/>
<path fill="#532682" opacity="1.000000" stroke="none" 
	d="
M544.528748,532.488770 
	C544.556824,532.485474 544.500671,532.492126 544.528748,532.488770 
z"/>
<path fill="#532682" opacity="1.000000" stroke="none" 
	d="
M255.983597,533.981873 
	C256.096619,533.770874 256.221375,533.572876 256.346100,533.374817 
	C256.362488,533.556641 256.378906,533.738525 256.207886,533.968994 
	C256.020508,534.017578 255.995331,533.994812 255.983597,533.981873 
z"/>
<path fill="#572889" opacity="1.000000" stroke="none" 
	d="
M532.439453,281.684753 
	C532.379822,281.590088 532.599548,281.529236 532.599548,281.529236 
	C532.599548,281.529236 532.499023,281.779419 532.439453,281.684753 
z"/>
<path fill="#532682" opacity="1.000000" stroke="none" 
	d="
M226.581787,281.689056 
	C226.504761,281.765167 226.463516,281.508514 226.463516,281.508514 
	C226.463516,281.508514 226.658829,281.612946 226.581787,281.689056 
z"/>
</svg>